# xmcd
#
# Track frame offsets: 
#        150
#        10784
#        32411
#        59361
#        87573
#        110711
#        131746
#        163410
#        194998
#        209045
#        229877
#
# Disc length: 3418 seconds
#
# Revision: 0
# Processed by: cddbd v1.5.2PL0 Copyright (c) Steve Scherf et al.
# Submitted via: ExactAudioCopy v1.3
#
DISCID=a90d580b
DTITLE=Fuel Junkie - All Out
DYEAR=2019
DGENRE=Blues
TTITLE0=All Out
TTITLE1=High Stress, Low Money
TTITLE2=Can You Dig It
TTITLE3=Bad Luck
TTITLE4=V-Twin
TTITLE5=Kiss In The Moonlight
TTITLE6=Hard Times
TTITLE7=Once Or Twice
TTITLE8=Get Out On The Road
TTITLE9=TorqueFlite
TTITLE10=Push Me Away
EXTD=
EXTT0=
EXTT1=
EXTT2=
EXTT3=
EXTT4=
EXTT5=
EXTT6=
EXTT7=
EXTT8=
EXTT9=
EXTT10=
PLAYORDER=
